# xmcd CD database file
#
# Track frame offsets:
#	150
#	22070
#	45027
#	70927
#	97030
#	121917
#	150920
#	168455
#	199885
#	229687
#	263275
#
# Disc length: 3876 seconds
#
# Revision: 0
# Processed by: cddbd v1.5.2PL0 Copyright (c) Steve Scherf et al.
# Submitted via: CDex 1.51
#
DISCID=800f220b
DTITLE=Brian Lemon - Lemon Looks Back - Just For Fun
DYEAR=1996
DGENRE=Jazz
TTITLE0=At the jazz band ball
TTITLE1=I hadn't anyone till you
TTITLE2=Farewell blues
TTITLE3=Am I blue
TTITLE4=Jazz me blues
TTITLE5=I never knew
TTITLE6=On the Alamo
TTITLE7=When day is done
TTITLE8=When it's sleepy time down south
TTITLE9=When your lover has gone
TTITLE10=Cottontail
EXTD=YEAR: 1996
EXTT0=
EXTT1=
EXTT2=
EXTT3=
EXTT4=
EXTT5=
EXTT6=
EXTT7=
EXTT8=
EXTT9=
EXTT10=
PLAYORDER=
